PathFileType	4	(X/Y/Z)	Walk1_0-155.trc
DataRate	CameraRate	NumFrames	NumMarkers	Units	OrigDataRate	OrigDataStartFrame	OrigNumFrames
30	30	4	22	m	30	0	155
Frame#	Time	Hip			RHip			RKnee			RAnkle			RBigToe			RSmallToe			RHeel			LHip			LKnee			LAnkle			LBigToe			LSmallToe			LHeel			Neck			Head			Nose			RShoulder			RElbow			RWrist			LShoulder			LElbow			LWrist		
		X1	Y1	Z1	X2	Y2	Z2	X3	Y3	Z3	X4	Y4	Z4	X5	Y5	Z5	X6	Y6	Z6	X7	Y7	Z7	X8	Y8	Z8	X9	Y9	Z9	X10	Y10	Z10	X11	Y11	Z11	X12	Y12	Z12	X13	Y13	Z13	X14	Y14	Z14	X15	Y15	Z15	X16	Y16	Z16	X17	Y17	Z17	X18	Y18	Z18	X19	Y19	Z19	X20	Y20	Z20	X21	Y21	Z21	X22	Y22	Z22
1	0.03333333333333333	-2.5839599121323498	0.8287750696521546	0.3903702732844451	-2.5679445661552447	0.7966554700794851	0.4795098736017074	-2.6019795635518714	0.4456742586764001	0.5026490647341083	-2.580028054039778	0.07941082677104011	0.50752664191551	-2.3909574621234944	-0.007303270826664565	0.5401115579772655	-2.4425397984263046	-0.007135159415282526	0.60637027737704	-2.605988596137775	0.0074974057921109345	0.5041566512126683	-2.5792348998112535	0.7967910053876456	0.30875510602204054	-2.5522556000423835	0.45645389167587475	0.29263061455811484	-2.574904046733334	0.08096976114122752	0.2839588216276582	-2.3859305167151317	-0.004577561670218689	0.27379545637680436	-2.4288479107985443	-0.01139899784922487	0.2094281391760288	-2.6196202687300842	-0.01020658542063652	0.29277442823489114	-2.568444040235202	1.5230599664753892	0.35389871302422654	-2.52252271044229	1.773310777914903	0.2506839172392036	-2.45221923208361	1.660003705542162	0.3737536538234452	-2.554101504138275	1.3866428892942886	0.5789589105708854	-2.5605211254445477	1.0975862601972286	0.6267269334697098	-2.4879809242575286	0.8542196943867221	0.613505481854956	-2.57336402782338	1.3986198145401711	0.21065810827726428	-2.5522707031489884	1.0995500653432904	0.1534198957706829	-2.487937906151908	0.8561949965962068	0.16677216653097168
2	0.06666666666666667	-2.5843906366221967	0.8272874251526908	0.39093258462214836	-2.5690214561144455	0.7953442903966531	0.48107696544336226	-2.6017033722121554	0.44274544383788345	0.5026492746817273	-2.581263481565454	0.07775701047151708	0.508997417433576	-2.3905922542864375	-0.004770084390311634	0.5434589178338263	-2.4464885288387452	-0.008494187517856262	0.6046663552554518	-2.607294497587751	0.009924547961980971	0.5047007896734089	-2.580883676724997	0.7986389709602241	0.30558812232049304	-2.5537720482295665	0.456152678535968	0.2904948544583403	-2.57419156684665	0.0784235904468746	0.281557776142694	-2.3833384436208855	-0.007665569259961344	0.27280649462456114	-2.4262384241648514	-0.009334877966198238	0.21153266036352497	-2.6201310368658617	-0.011669362479321951	0.2928981290149045	-2.5684793776740853	1.5218716333601596	0.35463275924138793	-2.5401425486164504	1.7822757755851646	0.3716343783000822	-2.4199880428076366	1.6564612376799301	0.36317685717917514	-2.560504788391146	1.3864922030751303	0.5814661138710813	-2.5600996794577124	1.0931005286703852	0.6250282016992834	-2.4844255897111567	0.8526725172057623	0.6100229739368019	-2.5741421758988112	1.3973423664478453	0.20696809350916812	-2.5502442914368086	1.0986493033730726	0.15439753494502745	-2.486651641020272	0.8565762236379991	0.16750048985744634
3	0.1	-2.581511198889852	0.827195798204424	0.3873066179529773	-2.5689356731022133	0.797661795049533	0.4786176135657248	-2.6006848079017155	0.4435796777734324	0.5035264428917238	-2.5780221686154636	0.08162482742795525	0.5133495247182106	-2.3869343167609256	-0.004243464507198075	0.5445208970600373	-2.439385591027795	-0.0058649116721917	0.6066093864887703	-2.60906520513644	0.011043913025945273	0.5052574243059357	-2.576042116071159	0.7966299033745922	0.30195934945521563	-2.550789969895282	0.4555719364957185	0.28981586229842043	-2.575303620707538	0.07535064537653853	0.28121479377215364	-2.3854750434168484	-0.006784691820002414	0.27336925748454466	-2.4265660703661687	-0.009486295916851616	0.20887340162510237	-2.620535792770729	-0.013627238243205376	0.2929006295241981	-2.5384656346862817	1.5032253075244748	0.39063285451100466	-2.5332150313998905	1.7831231544161048	0.3618578642969631	-2.4133315001246483	1.6540336606793191	0.3635191043362761	-2.5976399920760107	1.4020425170211455	0.5417486820198749	-2.557866756532794	1.0923655117778504	0.6215977126004536	-2.4859254130395705	0.8503162583832413	0.6095803266639339	-2.573358486800455	1.3943349954323898	0.20445102105562396	-2.5502585055511005	1.094136234031439	0.15161260963744083	-2.4853286808617594	0.853031706147048	0.16528409641934516
4	0.13333333333333333	-2.582770923539988	0.8272745693480303	0.38708850069909306	-2.5693440505479215	0.799258964576982	0.47958137187782585	-2.6039720701537337	0.44275017599802424	0.5042529225552566	-2.5779520383463637	0.08282134351894348	0.516994140714807	-2.387152292053598	-0.0018775650312425872	0.5457029979993868	-2.4396731695101197	-0.0036632532727045846	0.6075614447153518	-2.676386792703499	-0.02042879881570159	0.49494673162572717	-2.5778528793572306	0.7974236307161202	0.3011066319997112	-2.5477362279864817	0.45387835529699255	0.29017486342249965	-2.5747693308204695	0.07601741639484523	0.28094422079207165	-2.387009558188071	-0.006846939641158613	0.27683751748524366	-2.426066126921027	-0.011169366096787328	0.20979231584044658	-2.6200653493048605	-0.01459684230652044	0.2924813734970561	-2.564913394102553	1.5212551712024893	0.34737910800528893	-2.514763641490705	1.7739688625922443	0.24240541232730856	-2.413989760175836	1.654244819697072	0.3576384281521984	-2.598552663994153	1.4034789024500829	0.5365251354093957	-2.557200896740192	1.093270535453614	0.6233861878017019	-2.483359082795178	0.8530879441584973	0.6096305846779013	-2.5681381384131545	1.3987507538582469	0.20196687565126467	-2.5487352985337606	1.0945299562266104	0.14900827278966286	-2.483707203335807	0.8535234186417286	0.1621127969042496
